<svg width="77" height="20" viewBox="0 0 77 20" fill="none" xmlns="http://www.w3.org/2000/svg">
<g clip-path="url(#clip0_1087_20)">
<path d="M2.09808e-05 14.1501L0.799191 15.5254L6.2464 12.3898C6.85266 12.0414 7.3487 12.3256 7.3487 13.0224V19.3761H9.18587V13.0316C9.18587 12.3348 9.6819 12.0506 10.2882 12.399L15.7354 15.5345L16.5345 14.1593L10.9587 10.9412C10.3525 10.5928 10.3525 10.0244 10.9587 9.66681L16.5345 6.45789L15.7354 5.09181L10.2882 8.22738C9.6819 8.57578 9.18587 8.29156 9.18587 7.59477V1.14026H7.3487V7.59477C7.3487 8.29156 6.85266 8.57578 6.2464 8.22738L0.799191 5.09181L2.09808e-05 6.46706L5.56664 9.67598C6.17291 10.0244 6.17291 10.5928 5.56664 10.9504L0.00920677 14.1593L2.09808e-05 14.1501Z" fill="white"/>
</g>
<path d="M68.9539 18.249C65.9082 18.249 63.9539 16.6754 63.9539 14.2134C63.9539 11.1169 66.9488 10.5332 69.6392 10.254C71.6951 10.0509 73.4718 10.0763 73.4971 8.98493C73.4718 7.2844 72.0758 6.09149 70.0453 6.09149C68.091 6.09149 66.5681 7.18287 66.3397 8.78188H64.2584C64.5122 6.14225 66.8981 4.28943 70.0961 4.28943C73.421 4.28943 75.553 6.26915 75.553 9.11183V15.6601C75.553 16.0916 75.7814 16.3201 76.2383 16.3201H76.9997V18.046H75.8068C74.3601 18.046 73.5987 17.3861 73.5987 16.1424V15.7363C72.8119 17.2845 71.289 18.249 68.9539 18.249ZM69.2585 16.447C71.7712 16.447 73.4971 14.848 73.4971 12.6144V10.8631C72.9134 11.6499 71.4159 11.8022 69.7661 11.9799C67.9133 12.1829 66.0605 12.4368 66.0605 14.1627C66.0605 15.5586 67.3295 16.447 69.2585 16.447Z" fill="white"/>
<path d="M58.311 18.0458H56.2043V4.59384H57.8795L58.1333 7.15733C58.9963 5.43142 60.5699 4.5177 62.8034 4.5177H63.2603V6.59895H62.8034C59.9607 6.59895 58.311 8.22334 58.311 10.9899V18.0458Z" fill="white"/>
<path d="M54.2548 18.0459H52.7573C50.1431 18.0459 48.7471 16.7007 48.7471 14.2134V6.37065H46.2598V4.59397H48.7471V0H50.8537V4.59397H54.4832V6.37065H50.8537V14.2134C50.8537 15.5586 51.5136 16.2693 52.7573 16.2693H54.2548V18.0459Z" fill="white"/>
<path d="M40.7674 18.3252C37.5694 18.3252 35.2089 16.65 35.0312 13.8073H37.0871C37.2394 15.5586 38.8384 16.5231 40.8689 16.5231C42.7725 16.5231 43.6862 15.7871 43.6862 14.4419C43.6862 13.1728 42.6963 12.8936 41.3004 12.4114L39.346 11.7515C37.3663 11.0916 35.3866 10.4824 35.3866 8.04583C35.3866 5.76153 37.1633 4.28943 40.1075 4.28943C43.0771 4.28943 45.1329 5.88844 45.4629 8.8834H43.407C43.1786 7.0052 41.8588 6.09149 40.0313 6.09149C38.3816 6.09149 37.4171 6.82754 37.4171 7.99507C37.4171 9.39103 38.8892 9.67022 40.0059 10.0509L41.8334 10.6601C44.2953 11.4723 45.7674 12.3098 45.7674 14.5434C45.7674 16.9038 44.0415 18.3252 40.7674 18.3252Z" fill="white"/>
<path d="M26.0958 18.249C23.05 18.249 21.0957 16.6754 21.0957 14.2134C21.0957 11.1169 24.0907 10.5332 26.7811 10.254C28.8369 10.0509 30.6136 10.0763 30.639 8.98493C30.6136 7.2844 29.2176 6.09149 27.1872 6.09149C25.2328 6.09149 23.71 7.18287 23.4815 8.78188H21.4003C21.6541 6.14225 24.0399 4.28943 27.2379 4.28943C30.5628 4.28943 32.6949 6.26915 32.6949 9.11183V15.6601C32.6949 16.0916 32.9233 16.3201 33.3801 16.3201H34.1416V18.046H32.9487C31.5019 18.046 30.7405 17.3861 30.7405 16.1424V15.7363C29.9537 17.2845 28.4308 18.249 26.0958 18.249ZM26.4003 16.447C28.9131 16.447 30.639 14.848 30.639 12.6144V10.8631C30.0552 11.6499 28.5577 11.8022 26.908 11.9799C25.0552 12.1829 23.2023 12.4368 23.2023 14.1627C23.2023 15.5586 24.4714 16.447 26.4003 16.447Z" fill="white"/>
<defs>
<clipPath id="clip0_1087_20">
<rect width="16.5345" height="18.245" fill="white" transform="matrix(-1 0 0 1 16.5345 1.14026)"/>
</clipPath>
</defs>
</svg>
