<svg width="24" height="24" viewBox="0 0 24 24" fill="none" xmlns="http://www.w3.org/2000/svg">
<path d="M15.2768 14.6812C16.03 14.7374 16.7809 14.6606 17.4969 14.4602C17.3045 14.8864 17.0622 15.2907 16.7734 15.6642C16.0746 16.568 15.1328 17.2541 14.0583 17.6423C12.9838 18.0304 11.8209 18.1045 10.7059 17.8558C9.59077 17.6072 8.56956 17.0461 7.76172 16.2383C6.95387 15.4304 6.39281 14.4092 6.14417 13.2941C5.89554 12.1791 5.96961 11.0162 6.35774 9.94172C6.74586 8.8672 7.43197 7.92544 8.3358 7.22664C8.70932 6.93785 9.11363 6.69549 9.53979 6.50308C9.33939 7.2191 9.26259 7.96997 9.31876 8.72321C9.43375 10.2652 10.0984 11.7148 11.1918 12.8082C12.2852 13.9016 13.7348 14.5662 15.2768 14.6812Z" stroke="white" stroke-width="2" stroke-linecap="round" stroke-linejoin="round"/>
</svg>
